<svg xmlns="http://www.w3.org/2000/svg" xmlns:xlink="http://www.w3.org/1999/xlink" width="500" zoomAndPan="magnify" viewBox="0 0 375 374.999991" height="500" preserveAspectRatio="xMidYMid meet" version="1.0"><path fill="rgb(100%, 56.858826%, 30.198669%)" d="M 375 187.5 C 375 208.199219 358.199219 225 337.5 225 L 37.5 225 C 16.800781 225 0 208.199219 0 187.5 C 0 166.800781 16.800781 150 37.5 150 L 337.5 150 C 358.199219 150 375 166.800781 375 187.5 Z M 375 187.5 " fill-opacity="1" fill-rule="nonzero"/><path fill="rgb(100%, 56.858826%, 30.198669%)" d="M 375 37.5 C 375 58.199219 358.199219 75 337.5 75 L 37.5 75 C 16.800781 75 0 58.199219 0 37.5 C 0 16.800781 16.800781 0 37.5 0 L 337.5 0 C 358.199219 0 375 16.800781 375 37.5 Z M 375 37.5 " fill-opacity="1" fill-rule="nonzero"/><path fill="rgb(100%, 56.858826%, 30.198669%)" d="M 375 337.5 C 375 358.199219 358.199219 375 337.5 375 L 37.5 375 C 16.800781 375 0 358.199219 0 337.5 C 0 316.800781 16.800781 300 37.5 300 L 337.5 300 C 358.199219 300 375 316.800781 375 337.5 Z M 375 337.5 " fill-opacity="1" fill-rule="nonzero"/></svg>