<?xml version="1.0" encoding="UTF-8" standalone="no" ?>
<!DOCTYPE svg PUBLIC "-//W3C//DTD SVG 1.1//EN" "http://www.w3.org/Graphics/SVG/1.1/DTD/svg11.dtd">
<svg xmlns="http://www.w3.org/2000/svg" xmlns:xlink="http://www.w3.org/1999/xlink" version="1.1" width="81" height="70.10146589227503" viewBox="344.26874003189795 50.01036682615627 81 70.10146589227503" xml:space="preserve">
<desc>Created with Fabric.js 4.6.0</desc>
<defs>
</defs>
<g transform="matrix(1 0 0 1 384.77 85.06)" id="BwtoCfgB-PYevJ1Cq3vM7"  >
<path style="stroke: none; stroke-width: 1; stroke-dasharray: none; stroke-linecap: butt; stroke-dashoffset: 0; stroke-linejoin: miter; stroke-miterlimit: 4; fill: rgb(252,134,29); fill-rule: nonzero; opacity: 1;" vector-effect="non-scaling-stroke"  transform=" translate(0, 0)" d="M 29.1 -34.55073 L -14.699999999999996 -34.55073 C -20.699999999999996 -34.55073 -25.599999999999994 -29.650730000000003 -25.599999999999994 -23.650730000000003 L -25.599999999999994 -23.250730000000004 L -29.099999999999994 -23.250730000000004 C -35.099999999999994 -23.250730000000004 -39.99999999999999 -18.350730000000006 -39.99999999999999 -12.350730000000004 L -39.99999999999999 10.249269999999997 C -39.99999999999999 15.449269999999999 -36.39999999999999 19.749269999999996 -31.599999999999994 20.849269999999997 L -31.599999999999994 31.249269999999996 C -31.599999999999994 33.04926999999999 -31.499999999999993 34.04926999999999 -30.599999999999994 34.44927 C -29.399999999999995 34.94927 -27.699999999999996 33.44927 -27.399999999999995 33.249269999999996 L -12.999999999999995 21.249269999999996 L 7.300000000000006 21.249269999999996 C 12.100000000000005 21.249269999999996 16.200000000000006 18.149269999999994 17.60000000000001 13.849269999999995 L 27.40000000000001 22.049269999999993 C 27.70000000000001 22.249269999999992 29.300000000000008 23.749269999999992 30.60000000000001 23.249269999999992 C 31.500000000000007 22.849269999999994 31.60000000000001 21.849269999999994 31.60000000000001 20.049269999999993 L 31.60000000000001 9.649269999999992 C 36.400000000000006 8.549269999999993 40.00000000000001 4.1492699999999925 40.00000000000001 -0.9507300000000072 L 40.00000000000001 -23.55073000000001 C 40.00000000000001 -29.65073000000001 35.10000000000001 -34.55073000000001 29.10000000000001 -34.55073000000001 z" stroke-linecap="round" />
</g>
<g transform="matrix(1 0 0 1 391.92 77.66)" id="Gp28ca7OadfuO0rROWwuy"  >
<path style="stroke: none; stroke-width: 1; stroke-dasharray: none; stroke-linecap: butt; stroke-dashoffset: 0; stroke-linejoin: miter; stroke-miterlimit: 4; fill: rgb(255,255,255); fill-rule: nonzero; opacity: 1;" vector-effect="non-scaling-stroke"  transform=" translate(-47.15, -32.6)" d="M 69.1 10.5 L 25.3 10.5 C 22.1 10.5 19.4 13.1 19.4 16.4 L 19.4 39 C 19.4 42.2 22 44.9 25.299999999999997 44.9 L 53.9 44.9 C 54.5 44.9 55.1 45.1 55.5 45.5 L 66.5 54.7 L 66.5 47.400000000000006 C 66.5 46.00000000000001 67.6 44.900000000000006 69 44.900000000000006 C 72.2 44.900000000000006 74.9 42.300000000000004 74.9 39.00000000000001 L 74.9 16.4 L 74.9 16.4 C 75 13.1 72.3 10.5 69.1 10.5 z" stroke-linecap="round" />
</g>
<g transform="matrix(1 0 0 1 391.97 73.26)" id="nYgZw6f7GfE4L-fJf0kKt"  >
<path style="stroke: none; stroke-width: 1; stroke-dasharray: none; stroke-linecap: butt; stroke-dashoffset: 0; stroke-linejoin: miter; stroke-miterlimit: 4; fill: rgb(252,134,29); fill-rule: nonzero; opacity: 1;" vector-effect="non-scaling-stroke"  transform=" translate(-47.2, -28.2)" d="M 67.4 23.3 C 67.4 24.2 66.60000000000001 25 65.7 25 L 28.700000000000003 25 C 27.800000000000004 25 27.000000000000004 24.2 27.000000000000004 23.3 C 27.000000000000004 22.400000000000002 27.800000000000004 21.6 28.700000000000003 21.6 L 65.7 21.6 C 66.6 21.6 67.4 22.4 67.4 23.3 z M 65.7 31.4 L 28.700000000000003 31.4 C 27.800000000000004 31.4 27.000000000000004 32.199999999999996 27.000000000000004 33.1 C 27.000000000000004 34.00000000000001 27.800000000000004 34.800000000000004 28.700000000000003 34.800000000000004 L 65.7 34.800000000000004 C 66.60000000000001 34.800000000000004 67.4 34.00000000000001 67.4 33.1 C 67.4 32.199999999999996 66.6 31.4 65.7 31.4 z" stroke-linecap="round" />
</g>
</svg>